<?xml version="1.0" encoding="utf-8"?>
<!-- Generator: Adobe Illustrator 21.0.0, SVG Export Plug-In . SVG Version: 6.00 Build 0)  -->
<svg version="1.1" id="图层_1" xmlns="http://www.w3.org/2000/svg" xmlns:xlink="http://www.w3.org/1999/xlink" x="0px" y="0px"
	 viewBox="0 0 150 150" style="enable-background:new 0 0 150 150;" xml:space="preserve">
<style type="text/css">
	.st0{fill:#FEFEFE;}
	.st1{fill:#3087C8;}
	.st2{fill:#6BA9D8;}
	.st3{fill:#9DC6E5;}
</style>
<g>
	<g>
		<path class="st0" d="M75.6,151.3c-24.1,0-48.3,0-72.4,0c-2,0-3,0-3-2.7c0.1-48.5,0.1-97,0-145.5c0-2.4,0.6-2.6,2.7-2.6
			c48.5,0.1,97,0.1,145.5,0c2.4,0,2.6,0.6,2.6,2.7c-0.1,48.5-0.1,97,0,145.5c0,2.4-0.6,2.6-2.7,2.6
			C124.1,151.2,99.8,151.3,75.6,151.3z"/>
		<path class="st1" d="M97.7,139.2c1.5-6.3,3.7-12.1,9-16.4c2.5-2,4.1-4.9,2.8-8.3c-1.3-3.6-4.3-5.3-7.8-5.3c-2.9,0-4.5-0.8-4.9-3.7
			c-0.2-1.5-1.4-2.5-2.8-2.8c-2.6-0.6-4.6-2-6.4-3.8C82,93.3,75,89.7,68.5,85.3c-4.6-2.5-9-0.4-13.5,0.7c-2.1,0.5-3.1-0.3-3.1-2.5
			c0.1-5.8-0.3-11.5-1.2-17.2c-0.3-1.8,0.1-3,2.3-2.4c3,0.7,4.8-0.3,5.4-3.5c0.5-2.7,2.4-3.4,5-3.1c3.6,0.4,7,1.9,10.7,1.7
			c1.7-0.1,2.4,1.6,3.2,2.9c2.2,3.5,3.9,7.3,6.8,10.3c0.8,0.8,1.5,1.9,2.8,1.6c1.5-0.3,1.6-1.8,1.9-3c0.7-3.5,0.6-7,0.1-10.4
			c-0.6-3.7,0-7.1,2-10.4c3.3-5.2,6.3-10.5,9.3-15.8c1.7-3,1.1-4.3-2.3-4.1c-3.4,0.2-7.8-1.3-9.4,3.8c-0.1,0.4-0.9,0.9-1.5,0.9
			c-3.9,0.5-7.7,0.7-11.4-1.2c-1.5-0.8-2.9-1.8-2.9-3.6c0-2,1.5-3.1,3.1-3.8c1.7-0.7,3.6-1.2,5.4-1.7c4.5-1.3,6.4-4.4,6.8-8.8
			c0.2-2.9,0.7-5.7,0.7-8.6c-0.1-3.7,1.7-4.2,4.7-3.5c14.5,3.4,27,10.2,37.4,20.9c5.9,6.1,10.4,13,14,20.7c1.2,2.5,0.8,3.9-1.4,5.6
			c-4.5,3.3-8.6,7.2-11.6,12.1c-4.9,8-4.2,15.4,2.4,22.2c3.6,3.8,7.2,7.6,10.4,11.7c2,2.6,2.1,4.7,0.8,7.5
			c-9.2,20.2-24.1,34-45.2,40.9c-3,1-3,1-3.8-0.8l0,0C96.8,142.8,96.8,140.9,97.7,139.2z"/>
		<path class="st1" d="M5.2,78.1C4.8,69.5,6.1,61.2,8.6,53c0.8-2.5,1.6-3.4,4.4-2c5.5,2.7,5.7,2.8,5.9,9c0.2,6.6,0.2,13.2,3,19.5
			c1.8,4,4.7,6.5,9,7.1c5.8,0.7,9.7,4.1,12.1,9c1.7,3.4,3.7,4.4,7.1,3.4c0.5-0.1,1-0.1,1.5-0.2c5.2-0.9,6-0.4,4.7,4.8
			c-1.9,7.9,0.5,14.1,6.3,19.5c3.7,3.4,7.3,6.8,11.4,9.7c1.1,0.8,2.1,1.7,2.1,3.3c0.1,3.6,0.3,7.2,0.6,10.8c0.2,1.9-0.6,2.4-2.4,2.3
			c-8.4-0.6-16.5-2.4-24.2-5.8c-25-11.1-39.7-30.2-44.3-57.2C5.4,83.3,5.4,80.7,5.2,78.1z"/>
		<path class="st2" d="M55,86c4.4-1.7,8.8-3.9,13.5-0.7C63.9,83.8,59.5,85.6,55,86z"/>
		<path class="st3" d="M96.2,144.5c0.9,2.2,2.6,0.2,3.8,0.8c-1.1,1.2-2.3,1.8-3.8,0.9C95.4,145.7,95.4,145,96.2,144.5z"/>
		<path class="st3" d="M97.7,139.2c0,1.9-0.4,3.7-1.5,5.3C96.2,142.6,96.1,140.7,97.7,139.2z"/>
	</g>
</g>
</svg>
